
<svg xmlns="http://www.w3.org/2000/svg" viewBox="0 0 175 48" class="size-5 z-10 shrink-0">
    <path
            d="M23.505 4.288a1.149 1.149 0 1 0-.002-2.303 1.149 1.149 0 0 0 .002 2.303zm13.371 1.806a21.928 21.928 0 0 0-10.222-4.038l-.208 2.438c3.261.421 6.264 1.66 8.826 3.481l1.604-1.881zM8.957 10.54a1.149 1.149 0 1 0 0-2.3c-.298 0-.567.117-.77.303-.047.048-.089.1-.135.148a1.148 1.148 0 0 0-.241.7c0 .634.513 1.148 1.146 1.148zm11.665-5.93-.32-2.42a21.923 21.923 0 0 0-9.74 4.256l1.492 1.9a19.515 19.515 0 0 1 8.568-3.737zm22.722 16.337 2.418-.214a22.031 22.031 0 0 0-4.393-10.284l-1.822 1.647a19.659 19.659 0 0 1 3.797 8.85zM7.976 12.53l-1.923-1.45a22.022 22.022 0 0 0-3.93 9.654l2.377.27a19.653 19.653 0 0 1 3.476-8.474zm30.446-2.36c.634 0 1.147-.515 1.147-1.15a1.148 1.148 0 1 0-1.147 1.15zm6.393 12.595c-.633 0-1.146.513-1.146 1.15a1.147 1.147 0 1 0 2.295 0c0-.636-.512-1.15-1.149-1.15zM38.53 37.867c-.633 0-1.147.514-1.147 1.15 0 .636.514 1.15 1.147 1.15.3 0 .57-.117.773-.304l.075-.075a1.148 1.148 0 0 0-.847-1.92zM3.108 25.074c.626 0 1.13-.498 1.146-1.12l.002-.04a1.147 1.147 0 0 0-2.295.011c0 .635.514 1.15 1.147 1.15zm23.444 18.491.105 2.368a21.91 21.91 0 0 0 10.287-4.074l-1.617-1.776a19.538 19.538 0 0 1-8.775 3.482zm13.055-7.672 1.837 1.557a22.048 22.048 0 0 0 4.367-10.47l-2.424-.1a19.616 19.616 0 0 1-3.78 9.013zm-16.102 7.895c-.634 0-1.146.513-1.146 1.15a1.147 1.147 0 1 0 2.295 0c0-.636-.513-1.15-1.149-1.15zm-13.091-2.339a21.945 21.945 0 0 0 9.982 4.378l.201-2.36c-3.191-.547-6.112-1.88-8.585-3.773l-1.598 1.755zM4.47 26.954l-2.367.098a22.022 22.022 0 0 0 3.976 9.91l1.803-1.527a19.628 19.628 0 0 1-3.411-8.481zM8.944 37.37c-.634 0-1.147.514-1.147 1.15a1.147 1.147 0 1 0 2.296 0c0-.636-.513-1.15-1.15-1.15z"
            fill="#3D2600"></path>
    <path
            d="M41.79 24.04c0-9.874-8.015-17.907-17.868-17.907-9.853 0-17.869 8.034-17.869 17.908 0 9.873 8.017 17.906 17.869 17.906 9.853 0 17.869-8.033 17.869-17.906z"
            fill="#115417"></path>
    <path
            d="M23.947 0C10.742 0 0 10.766 0 23.999c0 13.234 10.742 24 23.947 24 13.206 0 23.95-10.766 23.95-24 0-13.233-10.744-24-23.95-24zm17.421 10.448a22.014 22.014 0 0 1 4.393 10.284l-2.418.214a19.644 19.644 0 0 0-3.798-8.85l1.823-1.648zm4.596 13.467a1.148 1.148 0 1 1-2.295 0 1.147 1.147 0 1 1 2.296 0zM8.053 8.69c.046-.048.088-.1.135-.148.203-.187.473-.303.77-.303.636 0 1.15.514 1.15 1.15a1.148 1.148 0 1 1-2.055-.7zm15.87-2.558c9.853 0 17.869 8.033 17.869 17.907 0 9.873-8.016 17.907-17.87 17.907-9.852 0-17.868-8.034-17.868-17.907 0-9.874 8.016-17.907 17.869-17.907zm14.5 1.737c.636 0 1.15.514 1.15 1.15a1.148 1.148 0 1 1-2.297 0c0-.636.514-1.15 1.147-1.15zM26.654 2.055a21.928 21.928 0 0 1 10.222 4.039l-1.604 1.881c-2.563-1.822-5.565-3.06-8.826-3.481l.208-2.439zm-3.15-.067a1.149 1.149 0 0 1 0 2.3 1.147 1.147 0 0 1-1.146-1.15c0-.636.514-1.15 1.147-1.15zm-2.882 2.621c-3.182.54-6.1 1.856-8.567 3.737l-1.493-1.901a21.923 21.923 0 0 1 9.74-4.255l.32 2.419zM6.053 11.08l1.923 1.45A19.659 19.659 0 0 0 4.5 21.004l-2.377-.27a22.024 22.024 0 0 1 3.93-9.654zM3.108 22.774c.632 0 1.142.508 1.148 1.14 0 .013-.003.026-.003.04a1.146 1.146 0 0 1-2.293-.03c0-.636.515-1.15 1.148-1.15zM6.08 36.961a22.03 22.03 0 0 1-3.977-9.91l2.368-.098a19.628 19.628 0 0 0 3.41 8.482L6.08 36.96zm2.864 2.708a1.147 1.147 0 0 1-1.147-1.15 1.147 1.147 0 1 1 2.296 0c0 .636-.513 1.15-1.149 1.15zm11.452 6.157a21.939 21.939 0 0 1-9.982-4.377l1.598-1.756a19.567 19.567 0 0 0 8.585 3.774l-.2 2.36zm3.109.26a1.147 1.147 0 0 1-1.147-1.148 1.147 1.147 0 1 1 2.296 0c0 .634-.513 1.149-1.15 1.149zm3.152-.153-.105-2.368a19.537 19.537 0 0 0 8.775-3.481l1.617 1.776a21.914 21.914 0 0 1-10.287 4.073zm12.72-6.145-.074.075a1.14 1.14 0 0 1-.773.303 1.148 1.148 0 0 1-1.147-1.15 1.148 1.148 0 1 1 1.995.772zm2.067-2.339-1.838-1.557a19.626 19.626 0 0 0 3.782-9.013l2.424.101a22.055 22.055 0 0 1-4.368 10.47z"
            fill="#D3B775"></path>
    <path d="M23.547 34.407 8.651 23.934l14.896-10.473 14.894 10.473-14.894 10.472z" fill="#3D2600"></path>
    <path
            d="M23.547 34.407 8.651 23.934l14.896-10.473 14.894 10.473-14.894 10.472zM11.566 23.934l11.981 8.423 11.981-8.423-11.98-8.424-11.982 8.424z"
            fill="#D3B775"></path>
    <path
            d="M23.593 26.942a3.093 3.093 0 0 1 0-6.186 3.093 3.093 0 0 1 0 6.186zm0-4.509a1.416 1.416 0 0 0 0 2.832 1.417 1.417 0 0 0 0-2.832z"
            fill="#D3B775"></path>
    <path
            d="M35.365 27.64a4.093 4.093 0 0 0-.95-.875l-1.588 1.117c.309.06.82.296 1.22.803.483.614.596 1.497.276 2.146-.663 1.338-2.049 1.647-2.82 1.44-.527-.14-1.752-.682-1.752-2.68 0-2.006-.516-3.146-1.684-3.69 2.757-1.515 4.663-4.359 4.663-7.54 0-5.313-4.76-8.6-9.168-8.6-3.113 0-6.293 1.792-7.945 4.42-1.227-.091-2.604.314-3.496 1.572-.721 1.014-.967 2.218-.693 3.39.181.777.58 1.48 1.138 2.04l1.41-.992a2.612 2.612 0 0 1-.913-1.432c-.114-.491-.134-1.241.427-2.03.902-1.272 2.56-.9 3.107-.526.425.29 1.066.73 1.066 2.187 0 1.073-.032 4.285-.06 7.108-.022 2.22-.041 4.2-.041 4.717 0 .83-.72 1.664-1.751 2.026-.786.276-2.206-.123-2.732-1.407-.468-1.139-.114-2.223.982-3.095l-1.411-.991c-1.375 1.308-1.816 3.043-1.125 4.727.682 1.663 2.33 2.528 3.782 2.528a3.2 3.2 0 0 0 1.062-.173c1.718-.605 2.874-2.058 2.874-3.615 0-.497.018-2.355.039-4.471 1.495.88 2.92 1.316 4.325 1.316.911 0 1.794-.137 2.632-.387 1.266.265 1.831 1.172 1.831 2.92 0 2.587 1.55 3.92 3 4.307.287.076.596.116.915.116a4.31 4.31 0 0 0 3.842-2.435c.61-1.232.424-2.814-.462-3.94zm-11.757-2.266c-1.342 0-2.755-.536-4.306-1.622.022-2.294.042-4.508.042-5.362 0-2.345-1.259-3.208-1.807-3.583a2.656 2.656 0 0 0-.219-.134c1.41-1.91 3.891-3.227 6.245-3.227 3.6 0 7.486 2.644 7.486 6.916 0 3.8-3.407 7.012-7.441 7.012z"
            fill="#D3B775"></path>
    <path
            d="m16.239 27.218.69.485v2.066l-.92-.656.23-1.895zm.238-6.731c.257-.172.49-.319.49-.319V18.07l-.613.454.123 1.964zm10.576 11.444c.23-.158.51-.364.51-.364s-.122-.475-.17-1.021c-.041-.46-.013-.9-.013-.9s-.473.353-.666.486c-.194.134.34 1.8.34 1.8zm2.351-12.307c.195.134.716.498.716.498s.121-.462.17-.984c.048-.523.024-.923.024-.923l-.752-.523-.158 1.932z"
            fill="#D3B775"></path>
    <path
            d="M60.081 33.027v-19.61c0-.207.037-.404.113-.588a1.453 1.453 0 0 1 .79-.798c.177-.075.375-.113.592-.113h5.442c.949 0 1.844.184 2.686.551a7.027 7.027 0 0 1 3.687 3.709 6.68 6.68 0 0 1 .55 2.69 7.05 7.05 0 0 1-.234 1.816 6.692 6.692 0 0 1-1.832 3.123c-.456.446-.985.84-1.586 1.179l4.497 7.219a1.55 1.55 0 0 1 .127 1.413 1.463 1.463 0 0 1-.796.791 1.508 1.508 0 0 1-.585.114c-.527 0-.954-.246-1.284-.735l-4.976-7.98H63.07v7.219c0 .415-.146.769-.438 1.06a1.442 1.442 0 0 1-1.057.438 1.44 1.44 0 0 1-1.058-.438 1.442 1.442 0 0 1-.437-1.06zm2.989-18.113v7.898h3.948a3.857 3.857 0 0 0 2.785-1.166c.352-.362.633-.781.838-1.257.207-.476.31-.982.31-1.52 0-.545-.103-1.059-.31-1.54a3.983 3.983 0 0 0-2.101-2.105 3.802 3.802 0 0 0-1.523-.31H63.07zm20.807 18.114c0 .414-.146.767-.438 1.06-.29.292-.643.437-1.057.437-.414 0-.766-.145-1.058-.438a1.447 1.447 0 0 1-.437-1.06v-19.61c0-.415.145-.768.437-1.06a1.444 1.444 0 0 1 1.058-.438c.414 0 .766.146 1.057.438.29.291.438.645.438 1.06v19.611zm28.294-9.806c0 3.118-1.106 5.784-3.313 7.996-2.2 2.205-4.855 3.308-7.966 3.308-3.12 0-5.78-1.103-7.98-3.308-2.2-2.203-3.3-4.868-3.3-7.996 0-3.117 1.1-5.779 3.3-7.982 2.208-2.214 4.869-3.32 7.98-3.32 3.102 0 5.757 1.106 7.966 3.32 1.109 1.111 1.937 2.326 2.488 3.645.55 1.318.825 2.763.825 4.337zm-11.279-8.308c-1.166 0-2.23.203-3.194.607-.963.405-1.854 1.017-2.671 1.837-.818.819-1.427 1.71-1.827 2.67-.4.961-.6 2.025-.6 3.193 0 2.299.809 4.258 2.426 5.878 1.616 1.62 3.571 2.43 5.865 2.43 2.293 0 4.248-.81 5.865-2.43s2.425-3.58 2.425-5.878c0-2.288-.808-4.243-2.425-5.863-1.626-1.63-3.581-2.444-5.864-2.444zm22.189-2.996c.8 0 1.553.153 2.263.46a5.894 5.894 0 0 1 3.116 3.123c.306.71.459 1.467.459 2.267 0 1.433-.442 2.68-1.327 3.744a7.29 7.29 0 0 1 1.51 1.173c.431.443.797.926 1.093 1.448a6.76 6.76 0 0 1 .669 1.654c.151.578.226 1.175.226 1.786 0 .952-.183 1.85-.549 2.692a7.169 7.169 0 0 1-1.489 2.212 7.02 7.02 0 0 1-2.199 1.497 6.644 6.644 0 0 1-2.686.55h-5.442c-.206 0-.4-.04-.578-.12a1.618 1.618 0 0 1-.473-.318 1.467 1.467 0 0 1-.323-.473c-.08-.184-.12-.38-.12-.586V13.416c0-.207.04-.402.12-.587.079-.183.187-.34.323-.473.136-.132.294-.239.473-.318.178-.08.372-.12.578-.12h4.356zm-2.862 2.996v5.723h2.862c.395 0 .765-.077 1.108-.227.343-.151.643-.359.902-.622a2.99 2.99 0 0 0 .613-.912c.151-.344.226-.713.226-1.109 0-.386-.075-.75-.226-1.095a2.954 2.954 0 0 0-1.53-1.534 2.704 2.704 0 0 0-1.093-.225h-2.862zm0 8.718v7.898h3.948a3.902 3.902 0 0 0 2.785-1.16c.352-.357.633-.776.839-1.256.206-.481.31-.995.31-1.541a3.83 3.83 0 0 0-.31-1.525 3.986 3.986 0 0 0-2.101-2.105 3.808 3.808 0 0 0-1.524-.311h-3.947zm30.254 7.898c.413 0 .766.146 1.057.438.292.291.438.645.438 1.06 0 .415-.146.767-.438 1.06a1.44 1.44 0 0 1-1.057.437h-13.041a1.457 1.457 0 0 1-1.065-.431 1.455 1.455 0 0 1-.317-.473 1.496 1.496 0 0 1-.114-.593V13.417a1.52 1.52 0 0 1 .431-1.068 1.471 1.471 0 0 1 1.065-.431h13.041c.413 0 .766.146 1.057.438.292.293.438.645.438 1.06 0 .415-.146.768-.438 1.06a1.44 1.44 0 0 1-1.057.438h-11.547v6.81h8.29c.413 0 .766.146 1.057.44.291.29.438.644.438 1.059 0 .414-.147.767-.438 1.06-.29.292-.644.438-1.057.438h-8.29v6.81h11.547v-.002zm22.033-16.616h-5.569v18.113c0 .415-.146.769-.437 1.06a1.443 1.443 0 0 1-1.058.438c-.414 0-.766-.146-1.057-.438a1.444 1.444 0 0 1-.438-1.06V14.914h-5.569c-.413 0-.766-.147-1.058-.439a1.447 1.447 0 0 1-.435-1.06c0-.414.145-.767.435-1.06a1.445 1.445 0 0 1 1.058-.437h14.127c.414 0 .766.145 1.058.437.292.293.437.646.437 1.06 0 .415-.145.768-.437 1.06a1.437 1.437 0 0 1-1.057.439z"
            fill="#D2B77F"></path>
</svg>